<?xml version="1.0" encoding="UTF-8"?>
<svg width="16px" height="16px" viewBox="0 0 16 16" version="1.1" xmlns="http://www.w3.org/2000/svg" xmlns:xlink="http://www.w3.org/1999/xlink">
    <!-- Generator: Sketch 54.1 (76490) - https://sketchapp.com -->
    <title></title>
    <desc>Created with Sketch.</desc>
    <g id="Symbols" stroke="none" stroke-width="1" fill="none" fill-rule="evenodd">
        <g id="checked" fill="#222222" fill-rule="nonzero">
            <path d="M8,0 C9.44086742,0 10.7741874,0.360211452 12,1.08064516 C13.2258126,1.80107887 14.1989211,2.77418742 14.9193548,4 C15.6397885,5.22581258 16,6.55913258 16,8 C16,9.44086742 15.6397885,10.7741874 14.9193548,12 C14.1989211,13.2258126 13.2258126,14.1989211 12,14.9193548 C10.7741874,15.6397885 9.44086742,16 8,16 C6.55913258,16 5.22581258,15.6397885 4,14.9193548 C2.77418742,14.1989211 1.80107887,13.2258126 1.08064516,12 C0.360211452,10.7741874 0,9.44086742 0,8 C0,6.55913258 0.360211452,5.22581258 1.08064516,4 C1.80107887,2.77418742 2.77418742,1.80107887 4,1.08064516 C5.22581258,0.360211452 6.55913258,0 8,0 Z M8,1.5483871 C6.83870387,1.5483871 5.76344581,1.83870677 4.77419355,2.41935484 C3.78494129,3.0000029 3.0000029,3.78494129 2.41935484,4.77419355 C1.83870677,5.76344581 1.5483871,6.83870387 1.5483871,8 C1.5483871,9.16129613 1.83870677,10.2365542 2.41935484,11.2258065 C3.0000029,12.2150587 3.78494129,12.9999971 4.77419355,13.5806452 C5.76344581,14.1612932 6.83870387,14.4516129 8,14.4516129 C9.16129613,14.4516129 10.2365542,14.1612932 11.2258065,13.5806452 C12.2150587,12.9999971 12.9999971,12.2150587 13.5806452,11.2258065 C14.1612932,10.2365542 14.4516129,9.16129613 14.4516129,8 C14.4516129,6.83870387 14.1612932,5.76344581 13.5806452,4.77419355 C12.9999971,3.78494129 12.2150587,3.0000029 11.2258065,2.41935484 C10.2365542,1.83870677 9.16129613,1.5483871 8,1.5483871 Z M12.516129,5.74193548 C12.602151,5.82795742 12.6451613,5.92473065 12.6451613,6.03225806 C12.6451613,6.13978548 12.602151,6.22580613 12.516129,6.29032258 L6.96774194,11.8064516 C6.88172,11.8924735 6.78494677,11.9354839 6.67741935,11.9354839 C6.56989194,11.9354839 6.48387129,11.8924735 6.41935484,11.8064516 L3.48387097,8.87096774 C3.39784903,8.78494581 3.35483871,8.68817258 3.35483871,8.58064516 C3.35483871,8.47311774 3.39784903,8.3870971 3.48387097,8.32258065 L4.22580645,7.58064516 C4.2903229,7.51612871 4.37634355,7.48387097 4.48387097,7.48387097 C4.59139839,7.48387097 4.68817161,7.51612871 4.77419355,7.58064516 L6.67741935,9.5483871 L11.2580645,5 C11.322581,4.93548355 11.4086016,4.90322581 11.516129,4.90322581 C11.6236565,4.90322581 11.7204297,4.94623613 11.8064516,5.03225806 L12.516129,5.74193548 Z" id=""></path>
        </g>
    </g>
</svg>