<?xml version="1.0" encoding="UTF-8"?>
<svg width="16px" height="16px" viewBox="0 0 16 16" version="1.1" xmlns="http://www.w3.org/2000/svg" xmlns:xlink="http://www.w3.org/1999/xlink">
    <!-- Generator: Sketch 54.1 (76490) - https://sketchapp.com -->
    <title>failed</title>
    <desc>Created with Sketch.</desc>
    <g id="failed" stroke="none" stroke-width="1" fill="none" fill-rule="evenodd">
        <path d="M8,0 C9.44086742,0 10.7741874,0.360211452 12,1.08064516 C13.2258126,1.80107887 14.1989211,2.77418742 14.9193548,4 C15.6397885,5.22581258 16,6.55913258 16,8 C16,9.44086742 15.6397885,10.7741874 14.9193548,12 C14.1989211,13.2258126 13.2258126,14.1989211 12,14.9193548 C10.7741874,15.6397885 9.44086742,16 8,16 C6.55913258,16 5.22581258,15.6397885 4,14.9193548 C2.77418742,14.1989211 1.80107887,13.2258126 1.08064516,12 C0.360211452,10.7741874 0,9.44086742 0,8 C0,6.55913258 0.360211452,5.22581258 1.08064516,4 C1.80107887,2.77418742 2.77418742,1.80107887 4,1.08064516 C5.22581258,0.360211452 6.55913258,0 8,0 Z M8,14.4516129 C9.16129613,14.4516129 10.2365542,14.1612932 11.2258065,13.5806452 C12.2150587,12.9999971 12.9999971,12.2150587 13.5806452,11.2258065 C14.1612932,10.2365542 14.4516129,9.16129613 14.4516129,8 C14.4516129,6.83870387 14.1612932,5.76344581 13.5806452,4.77419355 C12.9999971,3.78494129 12.2150587,3.0000029 11.2258065,2.41935484 C10.2365542,1.83870677 9.16129613,1.5483871 8,1.5483871 C6.83870387,1.5483871 5.76344581,1.83870677 4.77419355,2.41935484 C3.78494129,3.0000029 3.0000029,3.78494129 2.41935484,4.77419355 C1.83870677,5.76344581 1.5483871,6.83870387 1.5483871,8 C1.5483871,9.16129613 1.83870677,10.2365542 2.41935484,11.2258065 C3.0000029,12.2150587 3.78494129,12.9999971 4.77419355,13.5806452 C5.76344581,14.1612932 6.83870387,14.4516129 8,14.4516129 Z M11.2903226,6 L9.29032258,8 L11.2903226,10 C11.354839,10.0860219 11.3870968,10.1827952 11.3870968,10.2903226 C11.3870968,10.39785 11.354839,10.4838706 11.2903226,10.5483871 L10.5483871,11.2903226 C10.4838706,11.354839 10.39785,11.3870968 10.2903226,11.3870968 C10.1827952,11.3870968 10.0860219,11.354839 10,11.2903226 L8,9.29032258 L6,11.2903226 C5.91397806,11.354839 5.81720484,11.3870968 5.70967742,11.3870968 C5.60215,11.3870968 5.51612935,11.354839 5.4516129,11.2903226 L4.70967742,10.5483871 C4.64516097,10.4838706 4.61290323,10.39785 4.61290323,10.2903226 C4.61290323,10.1827952 4.64516097,10.0860219 4.70967742,10 L6.70967742,8 L4.70967742,6 C4.64516097,5.91397806 4.61290323,5.81720484 4.61290323,5.70967742 C4.61290323,5.60215 4.64516097,5.51612935 4.70967742,5.4516129 L5.4516129,4.70967742 C5.51612935,4.64516097 5.60215,4.61290323 5.70967742,4.61290323 C5.81720484,4.61290323 5.91397806,4.64516097 6,4.70967742 L8,6.70967742 L10,4.70967742 C10.0860219,4.64516097 10.1827952,4.61290323 10.2903226,4.61290323 C10.39785,4.61290323 10.4838706,4.64516097 10.5483871,4.70967742 L11.2903226,5.4516129 C11.354839,5.51612935 11.3870968,5.60215 11.3870968,5.70967742 C11.3870968,5.81720484 11.354839,5.91397806 11.2903226,6 Z" id="ï—" fill="#FF0000" fill-rule="nonzero"></path>
    </g>
</svg>