<?xml version="1.0" encoding="UTF-8"?>
<svg width="40px" height="40px" viewBox="0 0 40 40" version="1.1" xmlns="http://www.w3.org/2000/svg" xmlns:xlink="http://www.w3.org/1999/xlink">
    <!-- Generator: Sketch 52.3 (67297) - http://www.bohemiancoding.com/sketch -->
    <title>USDT</title>
    <desc>Created with Sketch.</desc>
    <defs>
        <linearGradient x1="50%" y1="45.6904863%" x2="50%" y2="114.535036%" id="linearGradient-1">
            <stop stop-color="#FFFFFF" offset="0%"></stop>
            <stop stop-color="#FFFFFF" stop-opacity="0.422526042" offset="100%"></stop>
        </linearGradient>
    </defs>
    <g id="USDT" stroke="none" stroke-width="1" fill="none" fill-rule="evenodd">
        <circle id="Oval" fill="#85BB65" cx="20" cy="20" r="20"></circle>
        <path d="M18.6898955,31.6496437 L18.6898955,29.1702455 C15.7351916,28.8977842 13.5888502,27.8624311 12,26.3638938 L14.5365854,22.8491426 C15.8745645,24.156957 17.9372822,25.2468023 20.4738676,25.2468023 C22.1184669,25.2468023 23.1219512,24.6201413 23.1219512,23.748265 C23.1219512,21.2688669 12.5853659,23.2578346 12.5853659,16.2555784 C12.5853659,13.5037189 14.7317073,11.0243208 18.6898955,10.5611365 L18.6898955,8 L21.7839721,8 L21.7839721,10.5883827 C24.0139373,10.8880901 25.9651568,11.7054741 27.554007,13.0132885 L24.9337979,16.3645629 C23.3728223,15.1112408 21.3379791,14.4845797 19.4982578,14.4845797 C18.1045296,14.4845797 17.4912892,15.0295024 17.4912892,15.7923941 C17.4912892,18.1083154 28,16.4190552 28,23.1760962 C28,26.4456322 25.7979094,28.7343074 21.7839721,29.1702455 L21.7839721,31.6496437 L18.6898955,31.6496437 Z" id="$" fill="url(#linearGradient-1)"></path>
    </g>
</svg>