<?xml version="1.0" encoding="UTF-8"?>
<svg width="16px" height="16px" viewBox="0 0 16 16" version="1.1" xmlns="http://www.w3.org/2000/svg" xmlns:xlink="http://www.w3.org/1999/xlink">
    <!-- Generator: Sketch 54.1 (76490) - https://sketchapp.com -->
    <title></title>
    <desc>Created with Sketch.</desc>
    <g id="Symbols" stroke="none" stroke-width="1" fill="none" fill-rule="evenodd">
        <g id="timer" fill="#222222" fill-rule="nonzero">
            <path d="M8,0 C9.44086742,0 10.7741874,0.360211452 12,1.08064516 C13.2258126,1.80107887 14.1989211,2.77418742 14.9193548,4 C15.6397885,5.22581258 16,6.55913258 16,8 C16,9.44086742 15.6397885,10.7741874 14.9193548,12 C14.1989211,13.2258126 13.2258126,14.1989211 12,14.9193548 C10.7741874,15.6397885 9.44086742,16 8,16 C6.55913258,16 5.22581258,15.6397885 4,14.9193548 C2.77418742,14.1989211 1.80107887,13.2258126 1.08064516,12 C0.360211452,10.7741874 0,9.44086742 0,8 C0,6.55913258 0.360211452,5.22581258 1.08064516,4 C1.80107887,2.77418742 2.77418742,1.80107887 4,1.08064516 C5.22581258,0.360211452 6.55913258,0 8,0 Z M8,14.4516129 C9.16129613,14.4516129 10.2365542,14.1612932 11.2258065,13.5806452 C12.2150587,12.9999971 12.9999971,12.2150587 13.5806452,11.2258065 C14.1612932,10.2365542 14.4516129,9.16129613 14.4516129,8 C14.4516129,6.83870387 14.1612932,5.76344581 13.5806452,4.77419355 C12.9999971,3.78494129 12.2150587,3.0000029 11.2258065,2.41935484 C10.2365542,1.83870677 9.16129613,1.5483871 8,1.5483871 C6.83870387,1.5483871 5.76344581,1.83870677 4.77419355,2.41935484 C3.78494129,3.0000029 3.0000029,3.78494129 2.41935484,4.77419355 C1.83870677,5.76344581 1.5483871,6.83870387 1.5483871,8 C1.5483871,9.16129613 1.83870677,10.2365542 2.41935484,11.2258065 C3.0000029,12.2150587 3.78494129,12.9999971 4.77419355,13.5806452 C5.76344581,14.1612932 6.83870387,14.4516129 8,14.4516129 Z M10,11.0967742 L7.25806452,9.09677419 C7.1505371,9.01075226 7.09677419,8.90322645 7.09677419,8.77419355 L7.09677419,3.48387097 C7.09677419,3.37634355 7.13440823,3.28494661 7.20967742,3.20967742 C7.28494661,3.13440823 7.37634355,3.09677419 7.48387097,3.09677419 L8.51612903,3.09677419 C8.62365645,3.09677419 8.71505339,3.13440823 8.79032258,3.20967742 C8.86559177,3.28494661 8.90322581,3.37634355 8.90322581,3.48387097 L8.90322581,8.06451613 L11.0645161,9.61290323 C11.1505381,9.67741968 11.1989247,9.76344032 11.2096774,9.87096774 C11.2204302,9.97849516 11.1935487,10.0752684 11.1290323,10.1612903 L10.5483871,11 C10.4838706,11.0860219 10.39785,11.1397848 10.2903226,11.1612903 C10.1827952,11.1827958 10.0860219,11.1612906 10,11.0967742 Z" id=""></path>
        </g>
    </g>
</svg>