<?xml version="1.0" encoding="UTF-8"?>
<svg width="40px" height="40px" viewBox="0 0 40 40" version="1.1" xmlns="http://www.w3.org/2000/svg" xmlns:xlink="http://www.w3.org/1999/xlink">
    <!-- Generator: Sketch 52.3 (67297) - http://www.bohemiancoding.com/sketch -->
    <title>noun_Merlion_826878</title>
    <desc>Created with Sketch.</desc>
    <defs>
        <circle id="path-1" cx="20" cy="20" r="20"></circle>
    </defs>
    <g id="Symbols" stroke="none" stroke-width="1" fill="none" fill-rule="evenodd">
        <g id="Will-header" transform="translate(-24.000000, -12.000000)">
            <g id="noun_Merlion_826878" transform="translate(44.000000, 32.000000) scale(-1, 1) translate(-44.000000, -32.000000) translate(24.000000, 12.000000)">
                <mask id="mask-2" fill="white">
                    <use xlink:href="#path-1"></use>
                </mask>
                <use id="Mask" fill-opacity="0.185461957" fill="#4A90E2" xlink:href="#path-1"></use>
                <g mask="url(#mask-2)" fill="#5596E6" fill-rule="nonzero" id="Combined-Shape">
                    <g transform="translate(6.500000, 5.000000)">
                        <path d="M18.8579335,48.4906593 L23.3410795,48.4906593 C23.8361477,48.4906593 24.2402727,48.8943956 24.2402727,49.393022 L24.2402727,53.8637363 C24.2402727,54.3623626 23.8361477,54.7660989 23.3410795,54.7660989 L1.06602273,54.7660989 C0.567340909,54.7660989 0.166829545,54.3623626 0.166829545,53.8637363 L0.166829545,49.393022 C0.166829545,48.8943956 0.567340909,48.4906593 1.06602273,48.4906593 L4.97271223,48.4906593 C4.55471682,48.2136655 4.14791854,47.894457 3.76360227,47.5266484 C1.96160227,45.7992857 1.04434091,43.388956 1.04434091,40.3645604 C1.04434091,36.6160989 1.6695,34.4571978 2.126625,32.8809341 C2.81803409,30.4965934 3.13121591,29.4086813 0.307159091,24.9421978 C0.131295455,24.6653846 0.117443182,24.3154396 0.275238636,24.0277473 C0.430022727,23.7394505 0.72875,23.5587363 1.05518182,23.5557143 C1.15462843,23.5544923 3.05711752,23.54476 4.89057716,24.1981319 C4.29029298,21.6794827 4.69715882,19.4126012 5.13377273,17.9723077 C3.34201136,18.0218681 2.28201136,16.9823077 2.28201136,15.2078022 C2.28201136,14.0419231 2.28201136,12.591978 3.60942045,12.591978 C3.88345455,12.591978 4.12918182,12.6687363 4.41767045,12.7581868 C4.80071591,12.8784615 5.27831818,13.0271429 5.95286364,13.0271429 C7.31942045,13.0271429 8.20114773,12.5847253 8.20114773,11.8993407 C8.20114773,11.4744505 7.67777273,10.2934615 7.14717045,10.2934615 C6.95384091,10.2934615 6.69004545,10.4354945 6.40276136,10.6917582 C5.07113636,11.8842308 3.78528409,12.1344505 2.94210227,12.1344505 C2.10976136,12.1344505 1.55807955,11.9011538 1.45629545,11.8534066 C1.34728409,11.8026374 1.2455,11.7289011 1.16479545,11.6388462 C0.184897727,10.5467033 -0.142136364,8.26752747 0.483022727,6.85747253 C0.863056818,5.99802198 1.57915909,5.50543956 2.44703409,5.50543956 L2.64397727,5.50906593 C3.99246591,5.50906593 5.240375,4.35527473 7.50552273,2.26225275 L7.96927273,1.83373626 C9.12503409,0.767582418 10.1681705,0.291318681 11.3558523,0.291318681 C11.9810114,0.291318681 12.5573864,0.420054945 13.1650795,0.556043956 C13.958875,0.733736264 14.7815795,0.924120879 15.8626591,0.846153846 C19.4040227,0.598956044 22.2280795,1.77027473 22.3370909,1.81620879 C22.6671364,1.95340659 22.8851591,2.27313187 22.8923864,2.63214286 C22.8996093,2.98973062 22.6920785,3.31713481 22.3695917,3.46835451 C23.8797602,4.97667331 26.3385909,8.27147616 26.3385909,13.7403297 C26.3385909,14.083022 26.1452614,14.3948901 25.8399091,14.5484066 C25.5375682,14.6995055 25.1725909,14.6674725 24.8985568,14.4601648 C24.2733977,13.9857143 23.5597045,13.533022 23.0230795,13.251978 C23.2368864,13.7802198 23.5042955,14.2885165 23.7855568,14.8191758 C24.7202841,16.5894505 25.7772727,18.5954396 25.7772727,22.5391209 C25.7772727,22.8268132 25.6399545,23.096978 25.4122955,23.2674176 C25.1804205,23.4366484 24.8780795,23.4862088 24.6076591,23.3997802 C24.274,23.2988462 23.4380455,23.180989 23.1290795,23.5007143 C22.9989886,23.6354945 22.637625,24.2350549 23.3675795,26.2990659 C24.9449318,30.7691758 25.9952955,39.9215385 22.1028068,45.4511538 C21.2174916,46.7075443 20.1338591,47.7216178 18.8579335,48.4906593 Z M11.4156172,50.2953846 C11.3798234,50.2961127 11.3360961,50.2965934 11.2847841,50.2965934 C11.2414348,50.2965934 11.1927639,50.2962513 11.1390937,50.2953846 L1.96521591,50.2953846 L1.96521591,52.9613736 L22.4418864,52.9613736 L22.4418864,50.2953846 L11.4156172,50.2953846 Z M12.063023,32.9668418 C12.525944,35.408996 12.8991677,39.0904023 11.5130455,41.0813736 C10.9198068,41.9365934 10.0410909,42.4285714 8.976875,42.5047253 C8.86063636,42.5143956 8.74801136,42.518022 8.63960227,42.518022 C7.01346591,42.5186264 6.31784091,41.6126374 6.04320455,41.0475275 C5.20363636,39.3183516 6.14920455,36.6783516 7.54707955,35.1268681 C8.41796591,34.1622527 9.37678409,33.6871978 10.368125,33.7192308 C10.1931422,32.7149147 9.98483108,31.8220849 9.81756285,31.2248373 C9.28566641,30.3158523 8.62840375,29.0737002 8.08530836,27.6821598 C7.94461514,27.9983024 7.6285254,28.2186264 7.26280682,28.2186264 C7.25196591,28.2186264 7.23811364,28.2186264 7.22727273,28.218022 C6.93215909,28.218022 6.64788636,28.0723626 6.47925,27.8167033 C6.25985957,27.4868201 6.06349026,27.156693 5.88821,26.8274582 C5.13385437,26.07255 3.84432018,25.6875829 2.74515909,25.5054945 C4.88081818,29.2811538 4.59293182,30.8308242 3.85514773,33.3837912 C3.40585227,34.9382967 2.84332955,36.8717582 2.84332955,40.363956 C2.84332955,42.8764286 3.570875,44.8461538 5.00368182,46.2193407 C7.53322727,48.6393407 11.4365568,48.4858242 11.4853409,48.487033 C15.6627045,48.4858242 18.7252614,47.1144505 20.6296477,44.4097802 C24.2619545,39.2512637 22.8996136,30.3871978 21.6697727,26.9022527 C20.8898295,24.6937912 20.9464432,23.1707143 21.8347955,22.2453846 C22.4461023,21.611978 23.2435114,21.4620879 23.949375,21.4862637 C23.7879659,18.6812637 22.9803182,17.1491209 22.1967614,15.6635165 C21.79625,14.908022 21.4204318,14.1942308 21.1391705,13.3486813 C20.7633523,12.2232967 21.1283295,11.6690659 21.4975227,11.4019231 C21.7402386,11.2242308 22.4009318,10.7515934 24.4420341,11.9664286 C23.923478,7.50916351 21.5507707,5.08696179 20.60435,4.28508834 L20.2893636,4.43082418 C20.5248523,5.15247253 20.5742386,6.03912088 20.4266818,7.02368132 C20.0225568,9.73620879 18.0031364,13.7234066 13.5445114,16.781044 C10.8821099,18.6063266 9.5265502,21.091768 8.83696839,23.187326 C8.95302676,25.3211164 9.9245694,27.61578 10.8065795,29.2878022 C12.0328068,19.2373077 19.2269545,14.5453846 19.5612159,14.3326374 C19.9822045,14.0648901 20.5338864,14.1918132 20.8012955,14.6112637 C21.0681023,15.0307143 20.9452386,15.5885714 20.5272614,15.8563187 C20.4465568,15.9082967 12.4266932,21.1762088 12.4266932,32.2420879 C12.4266932,32.532902 12.2872232,32.800056 12.063023,32.9668418 Z M6.54911364,15.8859341 C6.80206818,15.8859341 7.04839773,15.9935165 7.22365909,16.1899451 C7.46938636,16.4691758 7.51877273,16.8710989 7.35013636,17.2029121 C7.26943182,17.3624725 5.73423864,20.4364286 6.71052273,24.0482967 C7.30075,21.4493956 8.79017045,17.852033 12.527875,15.2906044 C16.5076932,12.5617582 18.2958409,9.09434066 18.6439545,6.75835165 C18.7909091,5.78708791 18.6855114,4.96752747 18.3663068,4.56741758 C18.1940568,4.35043956 18.1308182,4.06576923 18.1940568,3.79620879 C18.2572955,3.52543956 18.4397841,3.3 18.689125,3.18335165 L19.38475,2.86241758 C18.4361705,2.68593407 17.2629432,2.56082418 15.9807045,2.64785714 C14.6496818,2.73126374 13.6372614,2.51186813 12.7736023,2.31846154 C12.2393864,2.2006044 11.7828636,2.09725275 11.3546477,2.09725275 C10.8523523,2.09725275 10.2025,2.22417582 9.18405682,3.16401099 L8.72392045,3.59071429 C6.21184091,5.9128022 4.69471591,7.3156044 2.64277273,7.3156044 L2.44582955,7.31197802 C2.36151136,7.31197802 2.24948864,7.31197802 2.126625,7.59120879 C1.79959091,8.32252747 1.99653409,9.64796703 2.37957955,10.2662637 C2.50605682,10.2982967 2.70239773,10.3315385 2.9415,10.3315385 C3.71421591,10.3315385 4.47669318,10.0003297 5.20423864,9.34697802 C5.84023864,8.77884615 6.49370455,8.49054945 7.14717045,8.49054945 C8.99434091,8.49054945 9.99953409,10.7443407 9.99953409,11.9017582 C9.99953409,13.2543956 8.94194318,14.8348901 5.95226136,14.8348901 C5.14039773,14.8348901 4.52969318,14.6807692 4.09063636,14.5484066 C4.08340909,14.7121978 4.07979545,14.9273626 4.07979545,15.2102198 C4.07979545,15.9379121 4.30444318,16.1724176 5.00669318,16.1724176 C5.61860227,16.1724176 6.22930682,15.9463736 6.23653409,15.943956 C6.33831818,15.9040659 6.44371591,15.8859341 6.54911364,15.8859341 Z M10.2416477,35.5221429 C9.68273864,35.5221429 9.12081818,36.0715385 8.88171591,36.3368681 C7.83857955,37.4960989 7.24473864,39.3999451 7.65970455,40.256978 C7.72956818,40.3984066 7.90181818,40.7731319 8.851,40.7054396 C9.374375,40.6673626 9.75380682,40.4588462 10.0380795,40.0484615 C10.7023864,39.0959341 10.7764659,37.3474176 10.6180682,35.6019231 C10.5825341,35.5934615 10.5476023,35.5831868 10.5162841,35.5704945 C10.4241364,35.5378571 10.3325909,35.5221429 10.2416477,35.5221429 Z M16.2414886,45.6669231 C16.0132273,45.6669231 15.7885795,45.5804945 15.6127159,45.4076374 C15.2579773,45.0576923 15.2543636,44.4865385 15.601875,44.1317582 C16.059,43.6657692 16.476375,43.1683516 16.8425568,42.650989 C17.1334545,42.2436264 17.6923636,42.1517582 18.1001023,42.4412637 C18.5042273,42.7307692 18.5951705,43.2940659 18.3072841,43.6996154 C17.8856932,44.2931319 17.4044773,44.8660989 16.8847159,45.3973626 C16.7088523,45.5768681 16.4733636,45.6669231 16.2414886,45.6669231 Z M19.1010795,41.2107143 C18.9920682,41.2107143 18.8872727,41.1925824 18.781875,41.1514835 C18.3175227,40.9743956 18.0826364,40.454011 18.2585,39.9874176 C20.6856591,33.5850549 17.2641477,26.2754945 17.2292159,26.2023626 C17.0148068,25.7526923 17.2045227,25.212967 17.6538182,24.9984066 C18.0964886,24.7808242 18.6343182,24.9718132 18.8517386,25.4214835 C19.0065227,25.7472527 22.6460568,33.491978 19.94125,40.6286813 C19.8039318,40.9895055 19.4624432,41.2107143 19.1010795,41.2107143 Z"></path>
                    </g>
                </g>
            </g>
        </g>
    </g>
</svg>