<?xml version="1.0" encoding="UTF-8"?>
<svg width="66px" height="66px" viewBox="0 0 66 66" version="1.1" xmlns="http://www.w3.org/2000/svg" xmlns:xlink="http://www.w3.org/1999/xlink">
    <!-- Generator: Sketch 55 (78076) - https://sketchapp.com -->
    <title>Group 4</title>
    <desc>Created with Sketch.</desc>
    <g id="UI-lo-fi-v2" stroke="none" stroke-width="1" fill="none" fill-rule="evenodd">
        <g id="States" transform="translate(-603.000000, -1318.000000)">
            <g id="Group-4" transform="translate(603.000000, 1318.000000)">
                <circle id="Oval" fill="#D3D3D3" cx="33" cy="33" r="33"></circle>
                <g id="sad-sleepy-emoticon-face-square" transform="translate(0.000000, 14.776119)" fill="#7A7A7A" fill-rule="nonzero">
                    <path d="M0.699369593,3.88032583 C-0.191004301,3.04798786 -0.23655148,1.6521872 0.595051859,0.761078674 C1.4266552,-0.130029851 2.81217101,-0.187331141 3.71503365,0.656026309 C6.10332203,2.89885758 8.5555234,0.833807235 8.82733721,0.5913787 C9.63910549,-0.135906906 10.8409633,-0.152068808 11.6681589,0.503957501 C11.7658649,0.580359221 11.8584285,0.66778042 11.9443805,0.764017202 C12.7568834,1.67202226 12.679747,3.06708829 11.771742,3.88032583 C9.81468252,5.63242297 5.0072512,7.90978194 0.699369593,3.88032583 Z M42.4360132,0.737570453 C43.2485161,1.64557551 43.1713797,3.04064154 42.2633747,3.85387908 C40.3070498,5.60597622 35.4988839,7.88260056 31.1917369,3.85387908 C30.301363,3.02154111 30.2558158,1.62574045 31.0866845,0.734631925 C31.9175533,-0.1564766 33.3045383,-0.21377789 34.2066663,0.62957956 C36.5949547,2.87241083 39.0471561,0.807360486 39.3189699,0.56493195 C40.1307382,-0.162353655 41.332596,-0.178515558 42.1597916,0.477510751 C42.256763,0.553912472 42.348592,0.642068303 42.4360132,0.737570453 Z M39.1404543,23.7293458 C39.6238421,24.846721 39.1103344,26.144081 37.9929593,26.6274688 C36.8755841,27.1123258 35.5796934,26.5973488 35.0963056,25.4799737 C32.9702808,20.5660207 27.948337,17.3894723 22.2975482,17.3894723 C16.5181988,17.3894723 11.4646658,20.5630822 9.4253276,25.4755659 C9.07343891,26.3211272 8.25285505,26.834635 7.38966253,26.834635 C7.10829851,26.834635 6.82179206,26.7802722 6.54557045,26.6656696 C5.42158361,26.1977091 4.88897546,24.9076954 5.35546673,23.7844432 C8.08095118,17.2219762 14.731574,12.9824154 22.2982828,12.9824154 C29.7070458,12.9824154 36.3187331,17.2006719 39.1404543,23.7293458 Z" id="Shape"></path>
                </g>
            </g>
        </g>
    </g>
</svg>