<?xml version="1.0" encoding="utf-8"?>
<!-- Generator: Adobe Illustrator 22.0.0, SVG Export Plug-In . SVG Version: 6.00 Build 0)  -->
<svg version="1.1" id="Layer_1" xmlns="http://www.w3.org/2000/svg" xmlns:xlink="http://www.w3.org/1999/xlink" x="0px" y="0px"
	 viewBox="0 0 60 59" style="enable-background:new 0 0 60 59;" xml:space="preserve">
<style type="text/css">
	.st0{fill:#BCBCBC;}
	.st1{fill:#7A7A7A;}
	.st2{fill:#FFFFFF;}
</style>
<title>hand (1)</title>
<desc>Created with Sketch.</desc>
<g>
	<path class="st0" d="M51.5,48.4h-9.1v3.3h10.4c1.1,0,2-0.9,2-2V4c0-1.1-0.9-2-2-2H27.2H18c-1.1,0-2,0.9-2,2v4.7h3.4V5.3h7.9h24.2"
		/>
	<g>
		<path class="st0" d="M41.7,57H6.8c-1.1,0-2-0.9-2-2V9.3c0-1.1,0.9-2,2-2h25.6l11.3,11.2V55C43.7,56.1,42.8,57,41.7,57z"/>
	</g>
	<path class="st1" d="M43.7,18.4h-9c-1.3,0-2.3-1-2.3-2.3V7.3l5.1,5.1L43.7,18.4z"/>
	<g>
		<path class="st2" d="M25.9,18.7H12.6c-0.6,0-1.1-0.5-1.1-1.1v-0.2c0-0.6,0.5-1.1,1.1-1.1h13.2c0.6,0,1.1,0.5,1.1,1.1v0.2
			C27,18.2,26.5,18.7,25.9,18.7z"/>
		<path class="st2" d="M35.9,26.4H12.6c-0.6,0-1.1-0.5-1.1-1.1V25c0-0.6,0.5-1.1,1.1-1.1h23.3c0.6,0,1.1,0.5,1.1,1.1v0.2
			C37,25.8,36.5,26.4,35.9,26.4z"/>
		<path class="st2" d="M35.9,34H12.6c-0.6,0-1.1-0.5-1.1-1.1v-0.2c0-0.6,0.5-1.1,1.1-1.1h23.3c0.6,0,1.1,0.5,1.1,1.1v0.2
			C37,33.5,36.5,34,35.9,34z"/>
		<path class="st2" d="M35.9,41.6H12.6c-0.6,0-1.1-0.5-1.1-1.1v-0.2c0-0.6,0.5-1.1,1.1-1.1h23.3c0.6,0,1.1,0.5,1.1,1.1v0.2
			C37,41.1,36.5,41.6,35.9,41.6z"/>
		<path class="st2" d="M28.7,49.3H12.6c-0.6,0-1.1-0.5-1.1-1.1v-0.2c0-0.6,0.5-1.1,1.1-1.1h16.1c0.6,0,1.1,0.5,1.1,1.1v0.2
			C29.8,48.8,29.3,49.3,28.7,49.3z"/>
	</g>
</g>
</svg>
