<?xml version="1.0" encoding="UTF-8"?>
<svg width="60px" height="59px" viewBox="0 0 60 59" version="1.1" xmlns="http://www.w3.org/2000/svg" xmlns:xlink="http://www.w3.org/1999/xlink">
    <!-- Generator: Sketch 55 (78076) - https://sketchapp.com -->
    <title>hand (1)</title>
    <desc>Created with Sketch.</desc>
    <g id="UI-lo-fi-v2" stroke="none" stroke-width="1" fill="none" fill-rule="evenodd">
        <g id="States" transform="translate(-606.000000, -278.000000)">
            <g id="hand-(1)" transform="translate(606.000000, 279.000000)">
                <path d="M28.6056338,3 C24.412236,3 21,6.49037525 21,10.6560022 C21,14.8216292 24.412236,18.2112676 28.6056338,18.2112676 C32.7990316,18.2112676 36.2112676,14.8216292 36.2112676,10.6560022 C36.2112676,6.49037525 32.7990316,3 28.6056338,3 Z" id="Path" fill="#7A7A7A"></path>
                <g id="Group-2" transform="translate(43.000000, 0.000000)" stroke="#7A7A7A" stroke-linecap="round" stroke-width="2">
                    <g id="Group-3">
                        <path d="M6.43929354e-14,3.5 L6,3.5" id="Line-20" transform="translate(3.000000, 3.500000) rotate(-270.000000) translate(-3.000000, -3.500000) "></path>
                        <path d="M4.26325641e-14,3.42857143 L6,3.42857143" id="Line-20"></path>
                    </g>
                </g>
                <path d="M42.915493,30.8309859 C46.1778719,30.8309859 48.8309859,28.1778719 48.8309859,24.915493 C48.8309859,21.653114 46.1778719,19 42.915493,19 C39.653114,19 37,21.653114 37,24.915493 C37,28.1778719 39.653114,30.8309859 42.915493,30.8309859 Z" id="Path" fill="#BCBCBC"></path>
                <path d="M1.76559356,54.0060362 L3.53118712,54.0060362 C5.4816162,54.0060362 7.06237425,52.5126638 7.06237425,50.6710262 L7.06237425,30.6609658 C7.06237425,28.8188939 5.4816162,27.3259557 3.53118712,27.3259557 L1.76559356,27.3259557 C0.790379022,27.3259557 0,28.0724248 0,28.9934608 L0,52.3385312 C0,53.2595671 0.790379022,54.0060362 1.76559356,54.0060362 Z" id="Path" fill="#7A7A7A"></path>
                <path d="M10.305323,31.249497 L10.305323,51.2595573 C10.305323,51.5956639 10.2514385,51.9178744 10.2012072,52.2405193 L20.4328633,57.0502291 C21.6434373,57.625171 23.0001387,57.9295775 24.3527301,57.9295775 C24.8906616,57.9295775 40.1924809,57.9295775 40.1924809,57.9295775 C41.4957545,57.9295775 42.7698025,57.5860888 43.8794573,56.9347196 L58.2369285,47.2822973 C59.7831388,46.1749698 60.0982259,44.0806008 58.9374265,42.6102434 C57.8843962,41.275371 55.8436361,40.6969552 54.0275467,41.9445442 L43.2342137,47.7339132 C42.9826005,47.8594103 42.7035886,47.9245473 42.4190968,47.9245473 C41.7870959,47.9245473 21.5932061,47.9245473 22.3462187,47.9245473 C21.3767548,47.9245473 20.5926902,47.1789468 20.5926902,46.2570423 C20.5926902,45.3355721 21.3767548,44.5895372 22.3462187,44.5895372 L38.4786808,44.5895372 C40.4157818,44.5895372 41.9857378,43.0961649 41.9857378,41.2545272 C41.9857378,39.4124553 40.4157818,37.9195171 38.4786808,37.9195171 L30.2416633,37.9195171 L21.9297557,32.6499406 C20.4862912,31.7332471 18.8044564,31.249497 17.066454,31.249497 L10.305323,31.249497 Z" id="Path" fill-opacity="0.3" fill="#222222"></path>
            </g>
        </g>
    </g>
</svg>