<?xml version="1.0" encoding="UTF-8"?>
<svg width="20px" height="21px" viewBox="0 0 20 21" version="1.1" xmlns="http://www.w3.org/2000/svg" xmlns:xlink="http://www.w3.org/1999/xlink">
    <!-- Generator: Sketch 52.3 (67297) - http://www.bohemiancoding.com/sketch -->
    <title></title>
    <desc>Created with Sketch.</desc>
    <g id="UI-lo-fi-v2" stroke="none" stroke-width="1" fill="none" fill-rule="evenodd">
        <path d="M9.99997616,0.812540978 C15.3498474,0.812540978 19.6874531,5.15171063 19.6874531,10.5000179 C19.6874531,15.8514532 15.3498474,20.1874948 9.99997616,20.1874948 C4.65010488,20.1874948 0.312499255,15.8514532 0.312499255,10.5000179 C0.312499255,5.15171063 4.65010488,0.812540978 9.99997616,0.812540978 Z M9.99997616,18.3124993 C14.3190805,18.3124993 17.8124575,14.8175964 17.8124575,10.5000179 C17.8124575,6.18247752 14.3160288,2.68753651 9.99997616,2.68753651 C5.68247394,2.68753651 2.18749478,6.18381266 2.18749478,10.5000179 C2.18749478,14.8191223 5.68232135,18.3124993 9.99997616,18.3124993 Z M14.1891904,8.34376539 C14.1891904,10.9629684 11.3602558,11.0032897 11.3602558,11.9712287 L11.3602558,12.2187638 C11.3602558,12.4776285 11.1503717,12.6875127 10.8915069,12.6875127 L9.10840724,12.6875127 C8.8495425,12.6875127 8.63965836,12.4776285 8.63965836,12.2187638 L8.63965836,11.8805154 C8.63965836,10.4842251 9.69827247,9.9260599 10.4982126,9.47756701 C11.184208,9.0930083 11.6046247,8.83143513 11.6046247,8.32213611 C11.6046247,7.64846218 10.7452899,7.20130443 10.0505589,7.20130443 C9.14476122,7.20130443 8.7265951,7.63011353 8.13875165,8.37199409 C7.98028951,8.57196004 7.691098,8.6091151 7.48773697,8.45496355 L6.40089416,7.63080017 C6.20138597,7.47954779 6.15671597,7.19855786 6.29759241,6.99161102 C7.22051806,5.6364049 8.39609052,4.87503129 10.2263016,4.87503129 C12.1431443,4.87503129 14.1891904,6.37126643 14.1891904,8.34376539 Z M11.6405972,14.8750075 C11.6405972,15.7796608 10.9046295,16.5156285 9.99997616,16.5156285 C9.09532286,16.5156285 8.35935507,15.7796608 8.35935507,14.8750075 C8.35935507,13.9703542 9.09532286,13.2343864 9.99997616,13.2343864 C10.9046295,13.2343864 11.6405972,13.9703542 11.6405972,14.8750075 Z" id="" fill="#1565C0"></path>
    </g>
</svg>